<mxfile host="app.diagrams.net" modified="2024-03-02T10:34:28.916Z" agent="Mozilla/5.0 (Macintosh; Intel Mac OS X 10_15_7) AppleWebKit/537.36 (KHTML, like Gecko) Chrome/121.0.0.0 Safari/537.36" etag="acecfKO2EVVxEXuEQPdz" version="24.0.0" type="github">
  <diagram id="C5RBs43oDa-KdzZeNtuy" name="Page-1">
    <mxGraphModel dx="1103" dy="631" grid="1" gridSize="10" guides="1" tooltips="1" connect="1" arrows="1" fold="1" page="1" pageScale="1" pageWidth="1600" pageHeight="900" math="0" shadow="0">
      <root>
        <mxCell id="WIyWlLk6GJQsqaUBKTNV-0" />
        <mxCell id="WIyWlLk6GJQsqaUBKTNV-1" parent="WIyWlLk6GJQsqaUBKTNV-0" />
        <mxCell id="7UcVWqpw03O2dLqBT2V2-1" value="react构建流程" style="rounded=1;whiteSpace=wrap;html=1;labelBackgroundColor=none;" vertex="1" parent="WIyWlLk6GJQsqaUBKTNV-1">
          <mxGeometry x="80" y="30" width="120" height="60" as="geometry" />
        </mxCell>
        <mxCell id="7UcVWqpw03O2dLqBT2V2-2" value="renderer 和 commit阶段&lt;div&gt;&lt;br&gt;&lt;/div&gt;" style="text;html=1;align=center;verticalAlign=middle;resizable=0;points=[];autosize=1;strokeColor=none;fillColor=none;" vertex="1" parent="WIyWlLk6GJQsqaUBKTNV-1">
          <mxGeometry x="220" y="30" width="150" height="40" as="geometry" />
        </mxCell>
        <mxCell id="7UcVWqpw03O2dLqBT2V2-11" style="rounded=0;orthogonalLoop=1;jettySize=auto;html=1;exitX=0.25;exitY=1;exitDx=0;exitDy=0;entryX=0.5;entryY=0;entryDx=0;entryDy=0;" edge="1" parent="WIyWlLk6GJQsqaUBKTNV-1" source="7UcVWqpw03O2dLqBT2V2-4" target="7UcVWqpw03O2dLqBT2V2-7">
          <mxGeometry relative="1" as="geometry" />
        </mxCell>
        <mxCell id="7UcVWqpw03O2dLqBT2V2-12" value="current" style="edgeLabel;html=1;align=center;verticalAlign=middle;resizable=0;points=[];" vertex="1" connectable="0" parent="7UcVWqpw03O2dLqBT2V2-11">
          <mxGeometry x="-0.3681" y="1" relative="1" as="geometry">
            <mxPoint as="offset" />
          </mxGeometry>
        </mxCell>
        <mxCell id="7UcVWqpw03O2dLqBT2V2-4" value="FiberRootNode&lt;div&gt;（根节点的fiber）&lt;/div&gt;" style="rounded=1;whiteSpace=wrap;html=1;" vertex="1" parent="WIyWlLk6GJQsqaUBKTNV-1">
          <mxGeometry x="140" y="150" width="120" height="60" as="geometry" />
        </mxCell>
        <mxCell id="7UcVWqpw03O2dLqBT2V2-10" style="rounded=0;orthogonalLoop=1;jettySize=auto;html=1;exitX=0.908;exitY=0.011;exitDx=0;exitDy=0;entryX=0.75;entryY=1;entryDx=0;entryDy=0;exitPerimeter=0;" edge="1" parent="WIyWlLk6GJQsqaUBKTNV-1" source="7UcVWqpw03O2dLqBT2V2-7" target="7UcVWqpw03O2dLqBT2V2-4">
          <mxGeometry relative="1" as="geometry" />
        </mxCell>
        <mxCell id="7UcVWqpw03O2dLqBT2V2-13" value="stateNode（容器）" style="edgeLabel;html=1;align=center;verticalAlign=middle;resizable=0;points=[];" vertex="1" connectable="0" parent="7UcVWqpw03O2dLqBT2V2-10">
          <mxGeometry x="-0.1497" y="-1" relative="1" as="geometry">
            <mxPoint as="offset" />
          </mxGeometry>
        </mxCell>
        <mxCell id="7UcVWqpw03O2dLqBT2V2-15" style="edgeStyle=orthogonalEdgeStyle;rounded=0;orthogonalLoop=1;jettySize=auto;html=1;exitX=1;exitY=0.25;exitDx=0;exitDy=0;entryX=0;entryY=0.25;entryDx=0;entryDy=0;" edge="1" parent="WIyWlLk6GJQsqaUBKTNV-1" source="7UcVWqpw03O2dLqBT2V2-7" target="7UcVWqpw03O2dLqBT2V2-14">
          <mxGeometry relative="1" as="geometry" />
        </mxCell>
        <mxCell id="7UcVWqpw03O2dLqBT2V2-16" value="alertnate" style="edgeLabel;html=1;align=center;verticalAlign=middle;resizable=0;points=[];" vertex="1" connectable="0" parent="7UcVWqpw03O2dLqBT2V2-15">
          <mxGeometry x="0.1214" relative="1" as="geometry">
            <mxPoint as="offset" />
          </mxGeometry>
        </mxCell>
        <mxCell id="7UcVWqpw03O2dLqBT2V2-7" value="HostRootFiber&lt;div&gt;（根容器div#root）&lt;/div&gt;" style="rounded=1;whiteSpace=wrap;html=1;" vertex="1" parent="WIyWlLk6GJQsqaUBKTNV-1">
          <mxGeometry x="60" y="330" width="120" height="50" as="geometry" />
        </mxCell>
        <mxCell id="7UcVWqpw03O2dLqBT2V2-17" value="alertnate" style="edgeStyle=orthogonalEdgeStyle;rounded=0;orthogonalLoop=1;jettySize=auto;html=1;exitX=0;exitY=0.75;exitDx=0;exitDy=0;entryX=1;entryY=0.75;entryDx=0;entryDy=0;" edge="1" parent="WIyWlLk6GJQsqaUBKTNV-1" source="7UcVWqpw03O2dLqBT2V2-14" target="7UcVWqpw03O2dLqBT2V2-7">
          <mxGeometry relative="1" as="geometry" />
        </mxCell>
        <mxCell id="7UcVWqpw03O2dLqBT2V2-19" value="" style="edgeStyle=orthogonalEdgeStyle;rounded=0;orthogonalLoop=1;jettySize=auto;html=1;" edge="1" parent="WIyWlLk6GJQsqaUBKTNV-1" source="7UcVWqpw03O2dLqBT2V2-14" target="7UcVWqpw03O2dLqBT2V2-18">
          <mxGeometry relative="1" as="geometry" />
        </mxCell>
        <mxCell id="7UcVWqpw03O2dLqBT2V2-23" value="child" style="edgeLabel;html=1;align=center;verticalAlign=middle;resizable=0;points=[];" vertex="1" connectable="0" parent="7UcVWqpw03O2dLqBT2V2-19">
          <mxGeometry x="-0.241" y="-2" relative="1" as="geometry">
            <mxPoint as="offset" />
          </mxGeometry>
        </mxCell>
        <mxCell id="7UcVWqpw03O2dLqBT2V2-14" value="HostRootFiber" style="rounded=1;whiteSpace=wrap;html=1;fillColor=#d5e8d4;strokeColor=#82b366;" vertex="1" parent="WIyWlLk6GJQsqaUBKTNV-1">
          <mxGeometry x="470" y="330" width="120" height="50" as="geometry" />
        </mxCell>
        <mxCell id="7UcVWqpw03O2dLqBT2V2-25" value="" style="edgeStyle=orthogonalEdgeStyle;rounded=0;orthogonalLoop=1;jettySize=auto;html=1;" edge="1" parent="WIyWlLk6GJQsqaUBKTNV-1" source="7UcVWqpw03O2dLqBT2V2-18" target="7UcVWqpw03O2dLqBT2V2-24">
          <mxGeometry relative="1" as="geometry" />
        </mxCell>
        <mxCell id="7UcVWqpw03O2dLqBT2V2-35" style="edgeStyle=orthogonalEdgeStyle;rounded=0;orthogonalLoop=1;jettySize=auto;html=1;exitX=1;exitY=0.25;exitDx=0;exitDy=0;entryX=1;entryY=0.5;entryDx=0;entryDy=0;" edge="1" parent="WIyWlLk6GJQsqaUBKTNV-1" source="7UcVWqpw03O2dLqBT2V2-18" target="7UcVWqpw03O2dLqBT2V2-14">
          <mxGeometry relative="1" as="geometry" />
        </mxCell>
        <mxCell id="7UcVWqpw03O2dLqBT2V2-36" value="return" style="edgeLabel;html=1;align=center;verticalAlign=middle;resizable=0;points=[];" vertex="1" connectable="0" parent="7UcVWqpw03O2dLqBT2V2-35">
          <mxGeometry x="0.2888" relative="1" as="geometry">
            <mxPoint y="23" as="offset" />
          </mxGeometry>
        </mxCell>
        <mxCell id="7UcVWqpw03O2dLqBT2V2-18" value="h1" style="rounded=1;whiteSpace=wrap;html=1;fillColor=#d5e8d4;strokeColor=#82b366;" vertex="1" parent="WIyWlLk6GJQsqaUBKTNV-1">
          <mxGeometry x="470" y="450" width="120" height="50" as="geometry" />
        </mxCell>
        <mxCell id="7UcVWqpw03O2dLqBT2V2-22" value="" style="shape=image;verticalLabelPosition=bottom;labelBackgroundColor=default;verticalAlign=top;aspect=fixed;imageAspect=0;image=data:image/png,iVBORw0KGgoAAAANSUhEUgAAAloAAAD+CAYAAADiSas7AAAAAXNSR0IArs4c6QAAAHhlWElmTU0AKgAAAAgABAEaAAUAAAABAAAAPgEbAAUAAAABAAAARgEoAAMAAAABAAIAAIdpAAQAAAABAAAATgAAAAAAAACQAAAAAQAAAJAAAAABAAOgAQADAAAAAQABAACgAgAEAAAAAQAAAlqgAwAEAAAAAQAAAP4AAAAAG4JhwwAAAAlwSFlzAAAWJQAAFiUBSVIk8AAAQABJREFUeAHtnQd4HcW1x496b5bVLMuSLPeKO72Z3g0JIZQECAkhheSRXl96LwRISEJCIC9AgJBAANOLjQ24925ZcpHVe+9v/ytm7+7VXt290r3SlfQ/37fa2ZnZ2dnfau+ePXPmbEhubm6veJG4+ES54PIPeallX/zckw/bF4zS3NMWtskTPy83ev+5n06UF9bEGdtMkAAJkAAJkAAJkIAiEKoSgVj3dHcHotkRbfO9HdHS1OLCNi2nc0T7w4OTAAmQAAmQAAkEL4FwJ13r7GiXk8eLnVSVSTl5Rr1jxYeN9FhK1DeFSnxsj35KORljT5kcS9eK50ICJEACJEACI0nAkaLVoSlam95902s/ExKTLYpW8eF9XvcZjRU6OkOMboeHex15NeoyQQIkQAIkQAIkML4IuMbA/HDe+dNmG620NDdKfV2Nsc0ECZAACZAACZAACYw3An5TtEJDQyV36gyD35FDY9OaZZwgEyRAAiRAAiRAAiTghYDfFK2syXkSGhZmHO540SEjPZYT0VEcOhzL15fnRgIkQAIkQAJDIeA3RatgxlyjHxWlJwR+XWNV6hpd2LLTu8bqafK8SIAESIAESIAEhkjApTEMoaHYuHhJSU0zWjgyRp3g1QmeKHfNIZiV3yExtGopNFyTAAmQAAmQAAmYCPhF0TI7wXd1dQosWmNZHnom0Ti9cG209LU/n5TpUxhPy4DCBAmQAAmQAAmQgE7AZZoZJJCQkBDJmzbL2PvokYPS2zu2/ZZ2HoyUXz6SLF+8uV4itPAOkzO6dGWrRzvtTi30Q0tbiCy6PsdgwgQJkAAJkAAJkMD4JDBki1bGpBwJD48w6BUf3m+kx3Li9/9Mkqu/kCl7CiON0wzVwmtFRfZKUkJfMFOjgAkSIAESIAESIIFxSWDIFi2zE3xjfa00NdaPC5D3f6NKrjyn2ThXWLOq68Kkuj5UGpuHrL8a7TJBAiRAAiRAAiQwegkMSdGKjomVielZxtmPl9hZ5yxttShZx8vC5eq7s6SmgQqW8c/ABAmQAAmQAAmQgAxJ0corcPlmgeWJo4XjAun1FzcZ5wlL1lWaklVLJctgwgQJkAAJkAAJkEAfgSGZYPKnuz65U3riqGDG4XiQKZmu2Fn7j0RSyRoPF53nSAIkQAIkQAKDIDBoRSstY5JERkYZhzxyaK+RHuuJ+FjXrMrik0MyCo51VDw/EiABEiABEhjXBAataJmd4BEFvqqidFyC7OzSphpSSIAESIAESIAESMCGwKAULViyENZByXgJ6aDOl2sSIAESIAESIAEScEJgUIpWbsFMS9vFhQcs22N9IyrCNXRIi9ZYv9o8PxIgARIgARIYPIFBKVrmT+7U1VRJa4trFt7guzJ69jQHJEVoBwoJkAAJkAAJkAAJ2BHwWdFKTEqRmNg4o63xEjtLnfCFp7VIXIwr8vvhY66o+KoO1yRAAiRAAiRAAiQAAiG5ubmucTAysSXwn3vLJFn7rE5yQrekJLqUrK5u0b9pyEjwttiYSQIkQAIkQALjngDHvRz8Cyya1W5b68Gnkvi5HVsyzCQBEiABEiABEgABKloO/g9a2kIkTBtkxRrWq6KSCPnRn1PkEIcNHdBjFRIgARIgARIYvwQ4dDh+rz3PnARIgARIgARIIMAEfHaGD3B/2DwJkAAJkAAJkAAJjBkCVLTGzKXkiZAACZAACZAACQQbASpawXZF2B8SIAESIAESIIExQ4CK1pi5lDwREiABEiABEiCBYCNARSvYrgj7QwIkQAIkQAIkMGYIUNEaM5eSJ0ICJEACJEACJBBsBKhoBdsVYX9IgARIgARIgATGDAEqWmPmUvJESIAESIAESIAEgo0AI8N7uCJ33XWXhxLfsh955BHfdmBtEiABnwj85Kc/Nup/8xvfMtK+Jm699VZfd/FYn/e9RzQsIIFxR4CK1gCX/C+P/2WAUu9Fd9x4h/dKrEECJBA0BIZ6z+NEeN8HzeVkR0ggKAhw6DAoLgM7QQIkQAIkQAIkMBYJ0KLl4Kq2tbU5qGVfpbW11b6AuSRAAn4nMNT7bSj3uvlkhtoPc1tMkwAJjG4CtGiN7uvH3pMACZAACZAACQQxASpaQXxx2DUSIAESIAESIIHRTYCK1ui+fuw9CZAACZAACZBAEBOgohXEF4ddIwESIAESIAESGN0EqGiN7uvH3pMACZAACZAACQQxAc46DLKLExGXIhHxyXqv2usqpLu92VEPQ0LDJDwmQa/b09ku3R1jZ7ZjwsRMCQkR6e7qkubaKkc8vFWKikuQ9PyZerWm6gqpLT3mbZdBl2td1/qPvyK9vb3Sq6dcf0I/KENOj1ZOGTwBxdKOs7frMPijck8SIAES8ExgUIpWVFSUXHDBBZKfny/Z2dn6Q+TkyZNSXFwsr7/+urS0tHg+IksGJDDtuq9LYu4CvU7p+/+WY689NGB9VZix5HLJvaQvmn1r1XHZ+eCnVNGoXqdkTZHP/WNN3zloSsgPL5jql/M588bPyOk3fFpvq6GyVH53w+l+adeukae/eIOEhfYpWiU1DfK5R140qqUnxsmf7rjK2H5rb5Hc9/L7xjYTvhF45n9u0HeAonXtb/9p2fnxz39YoiP6fvKqGlvkkw89ZynnBgmQAAkEgoDPitaNN94oV199tYSHW3edPn26nHPOOXLzzTfLyy+/LH/729/0t/dAdHq8tKmsII7ON2RsjgKHhoU5On1fK4WMEC9lcVH9DQu1Xrdwt21Vb7ysoQhdt3yOfrotHZ3yn037BnXqdveOOc/9OgzqINyJBEiABBwQsGpLXna488475aKLLhqwVpj2YLz88stlwoQJ8qtf/WrAuiwkARIgATOBiQmx8qEVc/Ws7p7eQSta5jaZJgESIIGRJOBY0Zo7d65FyYJp/oUXXpB33nlHenp65NRTT5VVq1YJFC3IaaedJsuXL5eNGzeO5PmNm2O3Vh2Tlopi/Xwbj+0aM+fd2lgndWUn9OHpzvax43c2Zi4QT4QESIAESGBAAo4VLXdL1o9//GPZtm2b0XhRUZGuVP3iF78w8i655BIqWgaNwCbqj2yVXX/q89EK7JGGt/WW+lq5/6azhvegPBoJkAAJkAAJ+ImA1UFkgEanTnU5IdfV1VmULLVbYWGhVFRUqE3Jyckx0uMtEerA1yYsKk6ikjPGG5phP9/wyCjJmjFfs4o5/ncf9j7664Bwus9KSZA0bQjOFwkPCxU45keED80nDi7/qdqx46IifTl80NR1ct8GTWfZERIggVFBwLFFKzbW9cM90AdTa2trJT09XT95zE4cb5I/JV8WzlkoE1Im2J56WFSsTLv265KQM0egaEF6ujqkueywHHnu17b72GVmnf5hSVt4oV2RNB7bLUUv3mdbhsyJC1ZKzvm36eXttaWy99GveKyLgsTc+VKw6mt6nZ7ONtnx+zsGrD+UwhmnrZTLvvgj2yY62lrlDx8/37bMLvOab/xWpp96vkTHJ/YVa8PdDVVlsubRe+2qj5q802dMkdvPXaz3d+exMn2W4rKp2XLbuYskK7kvxIc6mYOl1fLQm5vlcHmNyjLWKXEx8oVLT5WC9AkSH+1SjFraO6WoslZ+p81+rGzwHl4EDv13rlwqS/InSUpctBHKor2rW8rqGuWRNdtk+9Ey47jmxKpls+XyRX1hNpAfGe5ShqE0/uVT15ir62m4KnxWm7nZqbXvb/nYhz4mDU0NsnPfTiksLuSEHn8DZnskMA4JOFa0KisrJTm5L75TTEyMR1QpKSlGGSxf40Hi4+LllLmnyLS8acZsTPiwuUt0SpbMveM+CY+OtxSFhkdKwuQ5Mu+TD0hHg7M4UfHZMyVm4uAshi1lhRKZkKr3AWu0g5AQniTz1OuM+gPV87S/L/mpOVMFcbNsxYapXb3ImFj5xB/+KxOnFFiLtXhViWlZcuWXfy6lh3Zby0bRVlZyvKTG992DBRkT9Fl6N5+50PYMZmSlys1nLZTv/estS/mSqZPk61eeJbBkuUtsVITMnZwuD95+pfxm9bvy7sFj7lWM7UytLz+6/gKjP0aBlojSrGO5E5Plf687T/675YD8bc1Wc7GenpKabLuvqqjOU22rNWZndor/FS1YtCYkT5BzTztXzlp+lhQeLZTte7ZLQ2ODOjTXJEACJOATAceK1po1awQhHCBQuJYsWSJbtmyxHGzmzJmGNQsF69evt5SPpQ1MFS/ILZAFcxboP8zezy1EU6TuN6xYqN/ZXKc5sBdJdMokfQgxLDLGsfLUUl4k8ZNmGIcN05Q37O9E4DSPY0fE9SnOGcuvluLVD9juiuG25IIlRlnFltVGOhAJOL63NtQaTYeGR0hUrFUxNQo9JG759RMWJau7q1Oqjx/R20lKn4TooZI1fZ6HvUXOOOMMue666zyWeytYvXq1Hk/OWz1/lGOI0KxkQcGvb2mX6MhwI2aU+3Fg9fr2NedYshFXqry+SdK04UMMIUJgUfrKFWfIl/7RKEcqXNdE7Yhhwl/fdIlAMVPS1NYhJ7RYYTHa8aekJhnWrauWzJTm9g556n2rgnu4vFoKMlwvZwjvgD4oOV5dr5LGGkFdO7v9r2ThAOYXJEzsmTF1hr7UN9TLrv275OCRg/rkH6MzTJAACZCAFwKOFa2XXnpJrrrqKkOR+sY3vqE/TN599139xwkzDC+++GLjcPX19fLkk08a22MlkZiQqFuvoGSpGZbmc+vUHuqHiw7rQw8fv/7jRlH64ostStbJ9U/K8TcfMcpT550n01Z91dj2lihZ+5hgUZK5/BrJvfhOtel1XbXzdck67UN6vdS553hUtFJmnS4hYR/8m2gPuMrtr3hteygV9q19SbAoSZ2cL5959E216XWN+pNmLjDqVZ8okj9+4iJteLZLz4Ov1m33PyNhmgLnSebPny94aRislJeXWxQtWIViI/uOV97QZGm2srFZfv/qRiMPiocvEvNBuxim++Xz62RL0Ulj9+TYaPnMRculw22I7VPaMJ8SKBa/Wf2erDtwVGUJrF3fuvpsQ0m6c+Uy+doTrxrlKnHZohkWJevVnYflwdc3qWJdYbr3lkuNOh/S4mP9e9Ne6eruMeq8uO2gYFEyeUKi3H/r5fomwjvc/ahvir1i2fHB9VbtYv1b7TokREfpWVUadzt56vmnZP6s+TKjYIZERriGU5MSk+TM5WfK6UtPl6LjRbJ993ap1SZqUEiABEjAGwHHihYauvvuu+WHP/yhbtmCRefCCy/UF/eDHD16VL75zW+6Z4/a7VDNqjN96nSZP3u+JCf2WYHMJ4OH1cnyk7Jr3y45UXrCXGSkJ5/rUrqaSw9ZlCxUqt79liRMmSuI8D4cUrbxOUPRwlBmXNZ0Qb/cJWPpFUZWY8m+oP+0z2X/82Ojvz2a1cOsZKGg9OAuee6n98i137nfqBfoxEBDb1A6Xt9dOKQuwFfpjj8/K7AmmaWupU1+8uxac5ZurTol1zU0+9yW/RYlC5W3HDkp/7duh3zsrFP0fTH8mJeWLMWVVleAG093KbRHq+osShZ2hH/XVzUF7YEPFCc42l+zdLb8a8Mevd1A/BmI5YbD9vemuR/NLc3y/tb39SUrI0sWzF4gk7MmG0onhhbxkoWlsalRt3LtP7yfVi4zRKZJgAQsBHxStDo7OwVDiFlZWRIfbz+c097ersfWamtrsxxoNG4kJSTpb7dTsqeI3Wwk/NDuObhH8EPbZfMGrc4ZPlhqmA55ZRv+o4os69L1Tw2bogVfsLaakxI9YZLeh0xt+LDwuV9Z+gNLlvocEArKN71gKQ/Gjcxpc41uHdu10bBkGZlaYs/bL8hVX/uVYDainTz77LP656Tsypzk7d6920k1v9V5WlNc3JUsT40vmOJSslDHU+T11ZqV6RbN70tFU1+Ul2VRtOA8bx4y/PfGvbaHxCeHSmsb9ZmQqAAlL5CKlm0nBplZWl4qWGC5njl1psydOVdg2VKSEJ+gW7hOXXKqHD1xVLdyVdf6ZpFUbXFNAiQwdgk4VrTwg/vd735XFixwvcXCktPY2KjTSUhI0H+UMdMQn+FZsWKFfOtb35LuAPlSDMcluXzl5f0ULChUh4v7hgadOshGp2Zbuluzb71lW2201/d9RFrNRlT5gVpXbH1JplzwCb15DBGK26ffJmrDmdpF1ct7e7qlZq/VOhKofg2l3ciYOGP3A+tfM9LuifLCfZI9u89i415WVlamf0bKPT9Yt//tw2dqsickGKdR3dQqDa3txrY5gaHIk5qClK0N5UGyU/rWqg6G+Myy/qDnyRQYzrwipW8oVvl/mfcN9jR+w/Ye2qsvmPgCy/aM/BkSEdE3HAyLd35OvuRNzpO/PvHXYD8d9o8ESGCYCfSfcuShAzfddJNFyUKwUuTddttt+vLRj37UEpwUjvOf/nTfR3s9NDnqskvKSuSx/zwm6zau82kWUnTqZNe5asopwjl4kq6WPsXVU7k/86FoKYEjPcI4mCV9qWsYEwFRoWwFs8BCZf42Yu1Jl9+Re7+bairds0blNhSibi3cgVPJNIV/qNeGFgeSmuZWoxizC81iVrzgSzVQHyo1R3sliZrf2GiWpuYmeW/ze/rvQPHx4tF8Kuw7CZDAMBFwrGhdcYXLVwdBSX/0ox8JhgmVYFjx5z//uZw44fKDOO+884y3PlVvNK0Rr8cs2ZnZgjg7V1xwheROzjUXDZiOSko3yr0pK11tw6dodbc3W/yyMpZdZfQTild8lmtWY9mGZ42yYE1MyLZek+Y6z8M4zbVjQ9Hypiy5XytzIFNP1iy1j7ntCVrMLbOkJ7ksh3aO5+a6NZrlTAlCPoxmgb/WpedfKh//8MclLyfPciq90mvZ5gYJkAAJgICjoUMEIFVmcuz03//+Fytbeeqpp+See+7RyzDciIjyBw4csK0b7Jn/evFf+uwj+GfExfY9WHBOmemZ+oJhxKJjRfoMw4FmIHU2mWYnafsPJKERw/vGX77peZl6Vd/1Sp6+XOsa+tfbFwz1g772dLYLLFrBLvUVpZYumocRLQXaRpQKYupeoG3jc1M33HCDTYmzLNwf8PMaDmnr7JtN6fRYjSaHeTUT0tO+sZGuWXdNWmgGs5iVtIgPvm9qLjenE0zBUM0zDs11gjmNmcZwii/IK9Ai5/cNF5r726oF0t17cK/sPjC8vnnmPjBNAiQQvAQcKVrTpk2znMGRI0cs2+aNQ4esM9ew72hVtLq6u/Qf0K07t8rECRP1sA5TJmuO8ZpPBiQ8PFyfjYgZiZittO/QPr1+R6f1odRWXWIgCgkNEyyeLFvhsVbfF2PHACWqtNmO+Vd8Qe8TnPaTpy+TukMbJW3xpcYRa/atM9LBnGhvbtRCjfRobmV912fCpClSvO1d2y4npGbY5iMTLwcZGZ7LPe74QcFQQkN4a3uo5XBMV7MOk7Uo7gPJhA+CoqJOeb01HAKc3JUg6Gmfeq5yrOuJia6vSjh12re2MPxbUKhmTZ8lc6bPETi9uwv8UzHDeNvubVJRVeFezG0SIAESMAg4UrTcZ9RNnDjRo/KUlpZmNI7EWJh9iPOoqqmS1995XZ+BNGvaLJk3a54kxLl+gGHxWrpwqb7ghxehHpS0Vp9QSX2NqO6Nx/vP0sJwXUTM8CpavZoy2VC8Q5KmLtb7lrH0Smk6sV9i0/OMPpdu+LeRDvZEpzbbFZHhITnzl8vWF/9p22VEoB+PclL7JI6S1PhYLShpqK1/FRQnfDNRyclal2KFPLOihe3pWRPlYGkVkv1kplampKrJ5a+l8szrbk2BUaLFSx12yZmUo39CKyMtw5hxae4EXqj2HNijO8a7/y6a6zFNAiRAAoqAI0Vr586dqr6+PuusszxGfT/77LMtdXfs2GHZHu0bmIGEH1osKUkpcsq8UwTfN1RWLpxf+sR0Of/M841ThS8Uht9CI/rCCSBQaOPxHxjlKpGOGFpehhZVXX+u4X+lFK2kqYskY5nLH6+zpV5ayjxbMP3ZD3+0VVd2XNLz+2a4zTrzYveJlPohEAIiLjnV4+Eee+wxPUSJxwpeCsx+il6qDnsxvn2oBJHfL5g3VV7RAo26y6nTc/RP6Kj8w2U1Kqmv4eAOJ3i0Abn+1Lnyo/+s0dPmP/i4ND7no6RY+4biQIII9UowTJ+kOc+bfcVUWaDWF559Yb+Zxj2alfTYiWP6p3jwwkUhARIgAV8IOFK0YJWC47v6SPSyZctk0aJFgpmHZikoKJCVK1caWVBKqqrG7g8T/LLeWv+WrHlvjf6ZDkz7RuwtO0GA0ElnXK8Xpcw4VRLzFuqWJFUX30GcfM7NanNY13WHN+szITF0iGHNyefcYhy/aucbRno0JF7/00/kxp89qncVlq1L7/6BvHTfd42uR0TFyEd+9JCxbZdAyJI9ewIXVNPumMOVB6sTPrWTkRSvH/LWcxbpH3xGnhJ8bPquC5epTT0ExKYjruFvVfCGFmj1ogXT9M3FWpyt5QXZsrHQVQ9K2Devsb54Pb7eZelV7ZjXCL4KPy71DUbE8nrg1Q3mKsOWbtSGonfv363HyRvNYWqGDRgPRAIkYEvAkaKFPfGWf/vttxuNfPvb35aDBw/qDyTMzoNfyrx584xyJJ5++mnL9ljdwPkjaCkWKFqwcmF2kvnj2yfX/VOLxH6drsjAajX75p9K1a43NcvWHonNyJe0Uy4WKDpOZOLCCyQuo8BSNT5ntrEdmThRci+609hGAr5Lx9942INvWK/U7n9XUueda9kHG1AQh0sKlp0jCy5cZTlcTGKKa1vjtuqb97q2P0i999RDUna4TzEq3LRWGqvLRflgLb36Fpk8d7Ec3vCWxCalyuxzLpWYhOR+bYynjD+/uVm+s+pc/ZTxbcH7P36ZvLW3SA6X10h+WoqcNzff8p1Eu49BY+e/v7NDLpxfoA+xwfr0De2zPe9q8bR2Hy8X+HedPTvP+G4i6qOs1hQyAnl2sq+kUuZP6fORW6lZ3E7RlLiiihpRjvzwj/rDaxt1i5rd/kPJa2lt0X2u4Hs10ASXoRyD+5IACYwvAo4VrRdffFHwPUOzMjVjhvbBVW2xEzjFjxdFy3z+9Y31uoULeZ+7/XNGUXdHqxQ++0vte4Zf6xse1B5MExes1BejkpZAPW8fh5502oclJm2KeTdLGvtnrrjGkoeNkrWPC4Yx7QTDh+6KVnttmXRoQVSHS+ZfeI3MW3n1gIezKy8r3GsoWtj5ye98Um6992kj8juGCs0R41GnQ3ugKl8ubI8n2VpUKq/tKtSVJJw3Po0Dy9RFNhCgHL29t9imRPSPRN//ygb5/MUrDH+m02fkCBZ3KdV8w/70xib3bNvt+195Xx78xFXGsGSqprSlxluD/v7lra3S2tFpu/9QMv/5nL1P31Da5L4kQALjm0CoL6f/v//7v/KHP/xBWltbPe6GIca//OUv8vWvf91jnfFaUL1njez52z223wuEU/qhZ34iTSX7DTw9Wp6deJqxaFfXkqdZtTxJ08kD0tXmGj5CvYqtqz1VD0i++vCzr42771d6YJc8cMu5umWrX1uaNQQfrd7474eNInwTcTSJOTioOe3LOcAi9AvtI9QYqrMTDN9BifrlC+vsio08WMI+r334GVHm7QTWJ3xs+rMPv+AxCr37fvD/uu2P/9G/wVjX3Gb5CLWqi3YpJEACJDAaCITk5uYO6hcrOztb/7g0psJj2KCoqEgfSiwpKdGGqQbVZFDxuuuuu+Qvj/9F79NgZ07CovXggw/anheCmCYVLJFwbZZhXeGmUeVwbntCQZoZmzxBZp91qWbRmiNHtqyTA+++Zvv9wyDt/rB0KzUhVmZPmig5qUlSooV/wNAdPgjtq+Dbh7O0dqZnpmoO7O2y/2SlHNU+RB3oX4Pf3vsbo6v/88V7jLSvCdzzDzz8gK+79as/0H3frzIzSIAExjwBx0OH7iSgUGF5++233Yu47YAAvmto/gSOg11YZRAEWupqZMvzjw1iz/GzS7VmQVp34NiQT7ilvVMwLImFQgIkQAIk0EfAp6FDQiMBEiABEiABEiABEnBOgIqWc1asSQIkQAIkQAIkQAI+EaCi5RMuViYBEiABEiABEiAB5wSoaDlnxZokQAIkQAIkQAIk4BMBKlo+4WJlEiABEiABEiABEnBOgIqWc1asSQIkQAIkQAIkQAI+EaCi5RMuViYBEiABEiABEiAB5wQGHUfL+SFGf83o6OhBn4T5e4eDboQ7kgAJOCIw1PttKPe6uYND7Ye5LaZJgARGNwFatEb39WPvSYAESIAESIAEgpgALVoDXJw7brxjgFIWkQAJjDUCvOfH2hXl+ZDAyBMY9LcOR77rge3BqlWr9E8Mbdy4MbAHYuskQAIkQAIkQAJjlgCHDsfspeWJkQAJkAAJkAAJjDQBKlojfQV4fBIgARIgARIggTFLgIrWmL20PDESIAESIAESIIGRJkBFa6SvAI9PAiRAAiRAAiQwZglQ0Rqzl5YnRgIkQAIkQAIkMNIEqGiN9BXg8UmABEiABEiABMYsASpaY/bS8sRIgARIgARIgARGmgAVrZG+Ajw+CZAACZAACZDAmCXAyPBj9tJ6P7GYtFwJCQ2V3u4uaa067n0H1iABEiABEiABEvCJwKAUrcioaElJTZOk5AmSkJgsLc2NUlNVIbXVldLR0e5TB1h5ZAhExCXLgk//0Tj4hh9eaqT9kYiInyAR8cl6Uz3a/0RbTYk/mmUbJEACJEACJDCqCPisaOVOnSkLl54mISH2o44lx47IlvfXSG9v76gCwc76h0Bc1jTJvehOSZgyz2iwt6dbNv74CmObCRIgARIgARIYLwR8UrQWrzhbcvKmDcgme8pUiYqJlffXvCrd2pAUZXwQSMydrylYn5bYzKnj44R5liRAAiRAAiTggIBjRSslNd2iZGGIcOeWd6W+tkaiNcUqb9osyc7J1w85MS1T5i8+VbZvWuegC6wy2gnMu+M+icuaPtpPg/0nARIgARIgAb8TsB//sznMwqWnG7lQsl574SkpOVYkTY31UlVRKpvffUsO7d9l1MnJLZBQzdGaMvYJwKneLPDHaijeYc5imgRIgARIgATGJQFHmlBISIju+K4IHdizXbo6O9Wmsd6/e6v0dHfr26FhYZI12foANioyMewEfFV6o1OzJSwyxqd+tpQXyb6/f012/P4OqS/c4nhfX/vmuGFWJAESIAESIIERJuBo6DA2Lt7SzfKT9qEAoGSVnjxmDCHCcR5WL8rIEUhLS5MFCxZITk6OvPzyy1JWVuaxMxPnny+ZK66R2IypWtiHML1ed0erlKx9XErf+5fH/ap2viGV216RppMHPNYZqODSSy+VxMRE2bt3r7502ijxA+3PMhIgARIgARIIVgKOFK24hCRL/1tbmi3b5o3mxgZjE6EfKMNPICIiQmbPnq0vsbGxjjowccFKKbj6y/3qwqo15YJPCCxcRS/8rl85MopevM8235fM6OhoWbx4sSxatEhKS0tlx44dAyqFvrTNuiRAAiRAAiQwUgQcKVparIZB9S8yMmpQ+3GnwRHIyMiQhQsXyqRJk7TwGyE+NaKULFiwWquOSXh0vERPyDbaSF90iZx46+/S2Vxr5AUigX6j/1ja29tl//79smfPHj0diOOxTRIgARIgARIIJAFHilaTyUqFzsRoVpLmpkbbfsUlJBr58NPCg5MxtQwkfk9ERkbKnDlzdOsVrELu0tPTIyUlJbJr1y4pLy93L7ZsV2xdrVmn7jfykqctlZkf/aGxPenM6+XoK38ytv2VeOWVV2TmzJn6OSQkJBjNRkVF6YojlEcMee7cuVM/F6MCEyRAAiRAAiQQ5AQcKVqtLU2W08jIypEjh/Za8rChO8BPmmLJRxT59rZWSx43hk4AFh/4XmVmZtpar+rq6nR/p0OHDgmULW/SVn3ComShft3hzdJ4bLcRfBS+W4GQrq4u3WoFyxV8tebPny9Tp06V8HDXvyfOE0tHR4ccPHhQVxzb2toC0R22SQIkQAIkQAJ+I+B6kg3QJCxSDfW1kpiUoteaOW+RHCs6JF1d1pmHs+Yu0pUtc1PR0TFUtMxAhpCGhWfevHkya9YsgSXLXaCEQLGCwtLc7NmPzn0/bJe887hdtq5sqSjvkQmptnX8mdnQ0CDr16/XFzjw43wxJKqGQnHeyMNSWVmpW7mOHTvmzy6wLRIgARIgARLwGwFHihaOhuCkZ55/uX5g+F5dcPmHZefW96RRU8CiNKtV3rTZkj2lL2CpuXdOrCnm+kx7JnDBBRdIenq6pQKUYDU0ONCMQstONhtNJQdtckXa6yuM/DDNb2s45fjx44IFzv1QLrHEx7v6gBmVK1eulJdeeomO88N5YXgsEiABEiABxwQcK1rVleVy8kSxTJqcpzcepfkDLTv9vH4HqqosE0SGVzLQDEVVh+vBEcDQ2erVq6W+vn5wDZj2aq+zD/vQoznHKwkNc/zvonbxyxrhHuBjhgXDikuXLvVLu2yEBEiABEiABAJNwKcn56b1b0rBTG3Y5pTltv2qr62WHZvWy8rLrtPLe3t7+g0v2u7ITEcE4MtkFji/X3vttYLhtn379smBAwe070v2BYw113OSxoefg1WSk5N1BSs/P1/CtAkW7jLYc3Zvh9skQAIkQAIk4G8CPilaOHjhgd1aENIjgm8fJiVPkLj4BKmpqpAyLYgpnOYnTHQNbbW1uqwh/u74eGwPs/Py8vJ0J/jUVJe/FBzIV6xYIcuXL9djUO3erV0jbabhaBb4YiEWGIYL7WKBQbkqLCzUfbQaGxtH86my7yRAAiRAAmOYgM+KFli0tbZIqTaMiMVdJk12+WmhHsW/BIqLiwULlA8Mo02fPl33YcJRzDGoMNx25MgRgdIFi9doEPQ/NzdX5s6d288XTfW/pqZGH0LEuVFIgARIgARIINgJDErR8nRS+GZd/rRZRvHJ4/z8jgHDz4mWlhbZsGGDvmB2HkI9mB3l4UCO2FRYYPHB0CKCfwbjMBuGBhErC0qW3dAghkwxmxI+Wr7OpvQzdjZHAiRAAiRAAj4R8KuiVTBzvhHeAf5ZxYWD+/adT2fAyvrMPMzOg88Wwh5AuTKHf0AQUAwrVldXB+XsvDPOOMOiJKpLivANUK6OHj2qsrgmARIgARIggVFFwCdFKzsnXxuGqtNDOrif5ZwFS2T67IVGdtGh/XSEN2gMTwKzEDdv3qwv2dnZRkDT4Tm6f46CIU8VkLSVPn7+gcpWSIAESIAERoyAT4oWZhympKbpilZdbZXuq5WQNEF3gEdsLSUIZHpo/061yfUIEIAzPBZYtuDzBKdy91mL/uzW4nuekNDwCKPJ0AjX54BCQsNk6Vf/ZZQhUfLOE1L63jN6HhSqiooK/UPSJ06csNTjBgmQAAmQAAmMZgI+KVrqRBO0CPFY7KS5qUHWvblaV8Lsypk3vAQQLX7btm36EsgjR8QlD9h8WFScpTwyMc3YfvPNN400EyRAAiRAAiQwlgj4pGghhANCOuCbhu4CK1ZZyTHZrsXR6u62xntyr8vtkSfgNG5Wb4/rWjrdx8nZ+bMtJ8djHRIgARIgARIYCQIh2kyvXl8OjCn4SSmpEhuXINExsdLa3CS1NZVjzoK1atUqfeht48aNvuBhXRIgARIgARIgARIwCPhk0cJe+LZeXU2VvhitMEECJEACJEACJEACJNCPQGi/HGaQAAmQAAmQAAmQAAn4hQAVLb9gZCMkQAIkQAIkQAIk0J8AFa3+TJhDAiRAAiRAAiRAAn4hQEXLLxjZCAmQAAmQAAmQAAn0J0BFqz8T5pAACZAACZAACZCAXwhQ0fILRjZCAiRAAiRAAiRAAv0JUNHqz4Q5JEACJEACJEACJOAXAlS0/IKRjZAACZAACZAACZBAfwJUtPozYQ4JkAAJkAAJkAAJ+IUAFS2/YGQjJEACJEACJEACJNCfABWt/kyCMic/P1/S09ODsm/sFAmQAAmQAAmQgD0BKlr2XJhLAiRAAiRAAiRAAkMmQEVryAjZAAmQAAmQAAmQAAnYE6CiZc+FuSRAAiRAAiRAAiQwZAJUtIaMkA2QAAmQAAmQAAmQgD0BKlr2XJhLAiRAAiRAAiRAAkMmQEVryAjZAAmQAAmQAAmQAAnYE6CiZc+FuSRAAiRAAiRAAiQwZAJUtIaMkA2QAAmQAAmQAAmQgD2BcPts5pKAcwLTp0+XsLAw6ezslMLCQuc7BqgmArvOmjXLtvWOjg55//33bcvcMyMiIuS0005zzza2N23aJK2trcY2EyRAAr4R8Ne96uSosbGxMmXKFL1qbW2tlJeXO9mNdUhgyATC4xOSpLOjXdrb23xqLDQ0VFJS02TCxEwJCRGpqSyXmppK6enu9qkdVh7dBFJTU+VnP/uZcRLXXXedkR6pBPpwwQUXeDy80z7OnDlTvvCFL3hs55e//KVjpc1jIywggXFMwF/3qhOE1157raxatUqvWlVVJXfeeaeT3QJaZ9KkSdrzU3uAalJWVibdfH4GlPdINR6+8rLrpLz0hLy/9lXHfViw+DTJnz7btv7x4kOybeM66e3ttS1nJgmQAAmQAAkMNwEYB4JJYF1buXKl0aUnn3xSWlpajG0mxg4Bn4cOF684W3LypnkkkJM3XcIjImXT+jepbHmkxIJAEnjmmWdkz549xiFgdbv55puNbaeJAwcOyO9+9ztL9c997nP6MKklkxskQAKDIuCve3VQBx/hnZYuXWr04OTJk1SyDBpjL+GTojVr3mKLklVXWyVHCw9qClWPlj9dUtMydEJZ2bkyb9EK2bXVmS/M2MPKMxpJAhUVFYJFSWZm5qAULficrV27VjWjrz/zmc9Q0bIQ4QYJDJ6Av+7VwfdgZPaEb1pSUpJx8A0bNhhpJsYeAce2VIwjT50xxyDQWF8ra197QYoL98vRIwdl/VurpaqyzCjPmzpTgs1Ua3SOCRIgARIgARIYIQLLly83jlxdXS11dXXGNhNjj4BjRSstY5JEaEOCSt5b+5puyVLb8MnqMDnUh2qz0LIm56pirscpgfz8fMFsn6EI2khMTBxKE0G3L2Y0Tp48WaKiooKub5465OzFKUSikjMkZmKOhEYM/dyiU7MlNNz1u+Opb57yI+KSJSYtV0JCfTLee2pOwqJiJToly2O5KnDGStUe2fXEiRMFi78lOTlZMCM5JibG3017bQ/3V0FBgeFo7nWHIVTw9VqDS1pamnHEjRs3GmkniZCwcP3+ikrWJqIN8f9atSXS55Dv5PjmOiEhoRKVlC7REyZp2YNrw9we0pEJqRIRl+Ke3W/bV+79GhjGDMe/PvnTXdasluZGaW1psnQTitikyXmWvPxpc6TkWJEljxtjn8AVV1whl156qWRkZBg/dBiGW716tfz973/3CiA+Pl6+/OUvCxSsuLg4o42uri7BbKF7771XDh065LWdYKuA4YKvfvWrgplGZgWrvb1dn3H061//WkpKSoKq2+Hh4TJ79myZM2eOIDTGf/7zn379C4uMkcnn3iJpiy4RpC2ivYC1Vh2X6r1r5OT6p6S3u8tSjI28yz4nKTNO1fNPvP13aa8rl9wLPyUx6VCQwvT8zuY6qdm/XopX/17btp9og7rJ05bJxAUrJWnqIk0pitP3VX+625ulreaklKx9TGoPeh6qyTnv4zJx4YX6bqXv/Usqd7wm+ZffLYm5C7QHQHJfc9p5tVQUy4EnviMdjdXqEMb6pptuksbGRtm1a5ccOXLEZ39V/K9gViukra3N5xlyDzzwgCQkJOj7/+AHP+gXduWGG26QCy+8UB++UrPe8LJcX1+vD5c/+uij+r7e/tx///3GSxCOU1lZKZ/97Gdl0SKNv/ayrQT3/9tvvy0PPfRQQGfWYZbwkiVL9N8NHBvnBIsRHM39LVCWFixYIDk5OfLyyy/r97CTYyxbtsyo1tDQ4Gg/vLzkXnyXJBcsEShHZsE91VSyXyq2vSxVO98wFxnpeXfcJxHxE/TtfX//qiRPXy6Zy6/RX4r0TI0T7ruT7z4lFVtfMvZzT+BFI3XuOTJx/vkSN2mG9SVIa6OzpV67L4q0+/QB/V5z319tz77lZxKdOlnfPPjk97R1iOSsvE3is2cZvyE4r9qD78vhf/9cenusvxtQVq+55hqBb9uOHTuCPlSH9YopCjbr5JRUI7fs5HEjjUSo9gO35NRzLXnYSErpu7D9CpgxZglceeWVcuutt/Y7P7xhXn311bqSYQ4H4V4RJvV77rlHs55GuBcJHvrwt/rpT38qTz31lL70qxSkGeecc47+ADI/fFRXoXTl5ubqjvd4EL3yyiuqaMTWeIiccsopkp2dbSi6eFi6S0Rskpxy96OerVeay0FM2hSZfM4t0nBkuzSe2OvehMRlTdPfYlGAH3AoNNpBLfWg4GQsuVwSsmfL3ke/LN0d/eOXTZhztkxb9VXLfuYNKF5xWdNlxke+J2Ubn5Ojr/zRXGykYzMLjP7EZU6TzBWr9Ld2owISWv9iM/Jl4ecelp0Pfkp/SJnL8badkpIiZ599tpxxxhm6srVz507Bg9WJQDlQLxl48cD/x9GjR53sKngIZWW5rG7meFHR0dHywx/+UKZOndqvLShc2Peqq66SxYsXy7e+9S1parK+ULvvhJcp9T89bdo0+f73v29rwcL9DMXuv//9r/5wdG9nqNs4r1/84hf6/6u5LZwTrHVQ/qDwDlVwHnjxwDIYSz32gSVbyebNm1XS4xovITM+8r8ey6F4JUyZJwk5cz0qWrHp+YaClnP+bTJh9pnW9jROUSmZ+gtFbHqeFL/8oLX8g638y7+gKVpn25bhnsB9mpS/SBbc9WcpfPYXUr1nrW1d3PPqRShhynyZsvJ2o39qB5wX+rnwM9Nk+wO3qWxjjWuL3ycseBnZv3+/PgkKL4TBJo4VrSjtH1lJbVWFSurrWfMXiypvbWmWmNi+N8nw8P4PS8uO3BhzBJSShYcy3m4xbIAHjhK8zeGHD5Ypd4GS9bWvfc2SDd8FtIOhQ7zl4+bC8pGPfET/wV63bp2lfjBu4CF59913W7oGa0dNTY3+YFNOsTivT33qU3Ls2DHZt2+fpf5wbOAhAssVFjy43MUuZMss7c3UPETY0VApTSe1CTLa2yiGE7CoH1T39uy2E/MW9mVrb8ewhHW21OnKkbKUxWZOlZkf/YGmbH3FbndLHqxgeEtHnyISJkh81gzjxzxz+dX6MOCR//7Gso/7Bqxjunzwxo83djyI1DljWDNHe0gcfuanll3NrKCIYAgNCyxGu3fvlsOHD0tPT49lH/MG4imhLhQfyIoVKxwrWqirBAF1zcoSrE5mJQvHwf2F/kK5xssMBMoAXmg+//nPq6a8rj/+8Y9bLLX4DcBDD8oF/rcDKVDw8MBVAus3rMM4Nn5vcHzzeat6TtdQKBcuXKi/KA7lXMwzDaEceFOe8f81/cPftnSzpeyItFYf1/+XYzSrUPQE7WXIzcpl2cFtQylZuEebywo1q3Go9tIw1bAeZyy7StobqqT03afd9rRu9vZ069bc9tpS6W5v0V5GMvSXDw223ta0a7+h/Q5065Zo657WrdyLPqVnoD3c89qNYbSDAiiAE+efJ1W73rLuaNrC7xVeDHGNEI8MLzWwdgWLOFK08HaGsVglHVqAUyUJido4/Kz5+ibyt25cK2ece6kq1m68aJ+DoRo7MzEqCWAGDd4ulZx11lnyxS9+UW3KLbfcIr/97W+NbZXAW6cS/FCijjmKOxStn/zkJ4bidtddd8m777474ANLtTeSa/N54YH217/+VV566SWjS7B24YGmfsAxs9GXB5zR0CATsBLiBwpWENUHc1PNzc3626K78oeHAJQOJbAQwVLkLsnTlkr2OTdLZ2u9e5HtNh4Aex7+ov4Q6KsQIrNv+akoJQxv7/CTatN+4M3S292pW7oqtq6Wk+uelK7WRnOxPswx44bv6W/cKID1rPil30tPp+v3zLLDBxuwnu15+H+ktbLPooTznnvbbwVKHyR19llSGPoLbXjDFawZYQvmzp2rK1eRkS4fMyjVsHDhiwPFxcX6sIcnR2h8ZQHDYJB58+Y5tuBi2E4JlHYlUPjht6QELzu4L9XXDaBo/+Y3v9GVCdTBEDfOwRwqRe1rt1bD4QiLgvvUrODBneDGG28U3Nf+FvQT1jQleMDivFTwT5wz+qOUSFXP2xrXDS8dsF7ZvXhAUYYyh+Fhs9XQU7toz6zsbd261VNVIz9VUzDU8LmmDcvuv94tzaWHjXIk4KeVseQySdX+n51Ke32F7PrTXbqChH1gmZ5/15/0Nbazz/qopmj9S0tZh+lxj+HFBW4AFVtf7jekF5k4Uebdcb8xxJ5z/q1eFS0cr6W8qM9SrSlsEAyVzr/zQWMYcdKZH7UoWrhnnn/+eZk/X7OGafHIlL8Wfr/wO4YFSj6sXHixgXvGSIpLexqgF1HRVr+LTpNpbslp5xp7bnl/jbS5BVxz39eozMSYJAArjVnJwkm+8847ljc3+DS4C3xaMESiBMMbZiUL+ZgK/pWvfMXwd8GPH4Yjg1lgGTA/3NasWWNRstB35OFHQwkeHJ4+IaTqDHWNhyIeyHj4wZ8OxzQrWXhIweoCnywM0+IN0X3oED4aZrFTslBed3iz7PnrF6Wt2pn/WeFzvzIpWWihV/b93zcsw4VTLrgDBRap2bdONv/8Wjn22l/6KVmo2NPVIYee+qGhEOk+XZqvijc5+OT3DSVLtXP4Pz9z7ab9uMMh2CxQTuHk/Nhjj+nX+8SJE8b/LerhwYCHLiKVf+hDH9If5uphodrZsmWLSupDh8aGl4T5/23btm1GbbyYKIHCj5hwSslCPq4vLK9mZQgWVl8E/8vf/OY3LUoW9n/hhRf0/zVz2BVf2h2orjnCO/5vzUoW9oPCet999w3UhKUM98Ill1yi9xf3iLuShYc8XvD+7//+T15//XVHShYOgLbUPQbWBw8etBzXbiN+0kwju62mpJ+ShUL4L5Vt+q/+cmJU9pLY/dDnDSULVWGp3fu3Lxl7wYKcdkqfn6KRqSVwb2773cekfPML/ZQs1OvQLGGH/+26N+CH5c3ahheUvY98ydIfWKJL3nnCOLT7/YUCvCi89dZb+nXAMwbPHrNAsYUPHX7jLr/8ct2Xzlw+nGlHFq3o6FhLn5RFK69gliQl9/lhlZ44KhVahHlYsMwSHRMrDVooCMr4IPDss8/anijeKvBGDbGbQQirlxI4uqO+neAbZXB+hJkYAkuMnYO23b4jkWd2fMXx8eC1Eygz8G9TP8QY/sHbmL8Fwyv48YEVy07wIIQFA9YWr6LFzzNLyowVAzqZm+t6SkMZqtn7jk2x5tS8e42kL75EL0vInWdTx3sWrFMd9ZX6cARqR6dgtpRnwfBjQ/GOfhUwxIG+wroFibKxsKmdMJSBRQ0hwkqihotRB07rp556qmDoHBYoKLXw0cLDXCk6eAnB/spKA4vnueeeqx8C9TCRQol5qB4PICXqO3/Yxv3lrjgjHwoYvuGpvvHp6f8Edd0FCtqDDz7onh3w7Xxt0owSWF0VI5WH9fr163UrMax2doIXD1gN8YJjtkCqurCO4HcJ9waUaF8F18788gQrGFh7k+6OPgsP6mGIEM7oGKYbijSVHNBeRPr7CkKRa68tM+4N+IZVbn/V50M1Ht1l2QfWZ31I0JLr2sAkFzufyzrNER6+WxA1VO/ay5WCZREvhVjgqoL7C59PUxZW1MRoCD7LphRc/P8PZxR+R4pWj9sPakio9ganWRMWLOmbKYTvG27ftM515qaUk38mU3UmRzmBvXv32p6B2bTu/oaIHZQvCtJ40//jH/s7KislRM2mQl2zYym2g03M/cNQivtbl+ovLAtQIidM6HtxwVu1vwWML7roon7N4gcHSh0eUr44ksK/wyzwySjd8B/NIfd1x9Yr8/5IN5cd1h5AVgVO1ak98K6haHnz+5ow5yzNOXiONgSRJVGJadoPdZ9ChLYik9JUk9rQhPXF0Cj4INFWfcI9y9jubmuW0Pi+duED5k2gAIAzFihOeLBjyEs9/GHRysvL019IHnnkEX3WIv4vVHgEWESU8zReMJRg+EQJrFnqPoHiAwVPiVmBeO+991R2vzWC9CpFC8Nt6NdA/mSqge3bt9sqb6o8UGvz78lAoRLw8gA/OTvBQxgPY7Pg2aWGBs0czXWcpnGtlcUSLD29SLq3B6XIEM1yCifzkrWPC+4FvAQMRqDAeJL6ou2SntL3MgOfK0+CF4z0xZfqoVMwzBeZoPnBaf8ndhIaMfA95j4UqtqAVcssuOcxc3ggwf0CSzAW+Bzi3sAIimKPew3D4fhd/ve//z1QU34tc6Rotbe1Wg4aqf04zVmwVLuh+8Bu37xe+4HuGwONiIyy1G1z29dSyI0xR8DsE2I+OfPbg/qnV+XYVg8b5OHtDzeJExnMzB8n7fqrDpxolXh7E8aMNKVoOT1/1fZg17CewFdkMC9E8G2q3rtWUrXZfhC8dWafeYO+wNqDocLaQxukUpsuDp8QJ9LZaDX/m/eBb4gSDPtheMP9TTht0cWCYcXwaNcwtNrHdm3yPbUrd/+xN9fp0fxVlISGuRQ5lTfQGko3hsahOGFmorL2uu+D+wlv5xA4UqM+FAuz1QovHrAS4//H7AhvdgZGuVLA0Ja5DNtmcS/Dg8qb0zb2H4nQJPjdwO+FkoEUIrzIOBU4qiMcDSYk+EPMyjAUbTurm91xavauk86La7XQDCl6MWJM5V/+eX2B0gHfJszsw8uN+71g1x7y2k33kXudjkbXPWb38oBnfu4ln9aUrMtcvmPujbhte1LAVDU409sJfkPMEqpNruv2wdUKkzzefPNN/aUG7hFm1xRzu8ORdqhotVn6gm8d4jM7kJrqCjle7HLOc1e02luHZua0HJgbQU/A6Q+I+UTcrTcw7zp1XvTkSGxufyTT5gei2TnYrk+YiajEbnhVlQ12bWeVwDAi3rbxIMVwBoasfJHCZ38pvV2deuwq835440X4AyxQvk5qM5iOv/GwuYpturPZ88Ows9n60MObNGJZKcG086lXuCZd6PmaVaK7s61vuOUDSxnevjWtQy/25j/i/mOvjjXUNYZwwd1uAoJZ6YWVSClaan3eeef1OzxCJ8ABH20qMTuxu/tFDuQrZbY+oy28/TtRtJzUUX3z1xr8zDJQ+IyBfivMfmloD8rstddeqyuvsPTCwX8wv21oC9dNvUji2pr95lA+sPQ5wM+66Sd6kFJzXVh49LAO2uSQ3IvvlEP/+rFm6XrPXMU23dnk+R4zD0vavazM+Oj3tVheSy3twscKSl6PKeRKpGZFVuItqGqPdn/6W/DyDuslhhHNoyXqOHbD5qosEGtHihZM+RgeRLR3SF5B3xsW8re897aep/6Yx0WRpyxdqpxrEnAn4B7q4c9//rP+JuJebzRum61YagjI03mYh0DMTsqe6vuaj4cQfMHwdu0+ZAU/FywqHg0eLkh7E8wQhIPsMU2JStNCIaTMPkNi01zhD9T+k07/sOb/UTpgMETUtftxV23AP8UsnS0uPxNYtwqu+apR3NXWpAdN7IvjY/WFWfDpP+mxvYzKw5SA8gxFCEPj6sFrPjR4Y+jdPPyO8CUIZQJRSgVmLUKguENBwIMEQ31QtMxD1fBLUuJ+j2Efd4VK1TW/HCDP03C3qq/W3l4kVD1/rt3Py3wPuR8Hcck8CWLXYdgWLx74CL0SXDNYCeE/V1paqg/5+Wq5Q0wyJUVFRT4Nz2M/OJgjVhtmuWYsuUKPl4UvL6iXBdSBhXfG9d+VHQ/c3m82LsrNEhbtmUNImMuHzWyxxf6Y9WtWshBmomj1fVqwVNPw5gcHWvHt1dsYIF0AACXCSURBVJb+mY8fyDR8CvH7hpd395ETHBdWTRVEOJD9cG/bkaKFndrb24z4WKqRfTu3SEtzk9rU16lpmcZ2l/amSyEBbwTwgMHbohoCMA+3edt3JMvtbmT3/sByoGaBDfRDj/3MDtK+Wpbcj+tpG4ofhqywwDkaDxbzMCUeVJhogAV9gFUEDwc7a5j5GJ1NNbrVCpYrCMI+TD73Y5Iy8zSjGrYHijqNiip6tbGTKYGp42bBMZXET57tGsrQrAa7/vxZzendfrgyMtH1IFX7B2oNhQoWDThCm30L1fGUHxAsVxjqcBcM40GZgq8U2oKCpEIEQCHD9YSFC9cS5ep/DO1CWVbirlThgQQrjZ24W5hx/YNV4JKAc1XDojgvPEjtRA3L25UhDz5cWOCOgIc1LCJKIUb74IIF1hAEP4Wf1UAWNLSJIWGz8qd87FDmq+iKzYv36bthCC9p6mKZcuEnLS8Nk8+/tV9MN/fjwGfRk5jvMfP9hfqZWnwtJRjGR6gJc0gTVabfwx9YjFVeINf4n8cLDF4ezX6I6pi4fzDzFG4SI/EygH44VrSqtQ9GT84tUH2XpsZ6OXxgt7GtEpmTpqikVFdandmMAiZIwI0Ahs2UideTw6rbLo433f0s8ENq9hlz3JBWETet+vE1v/l6asPs74K3Y+xrZ7bGD7n5QYC350AL/H+wwNKGB8uMGTOMc8OxcX7wHzrzzDP1eniAuVsQPPURQ3oHn/qBHhE+++wb9WqI1eNNYjQFzZMkaMqUEnd/lIQpc1WRPsPJk5IVHpPgUwBVo1EfE7AsgSleGpQSYG4C/39QlKAM4X9qIIHfkbJUIZyJGjVAaAE86KFo4SVFWb7Qlp2ijv879b+LviEUg52YHe2hxDixbNq1M5i8wdyrcDNQygxiXr322mu2h3ZXIG0raZm4NogFiAVDrngZMTvKgyGUZyz43cI19OR3ZQ5QCkuY2cLt6fhO8jGaVFe4WV/weR188QCCCPDeBC8lngQR25W4+1WqT+agHKFU7JQslCXmuiZnYDsQgpdc8Mf1Nr+gmo+FewDKFZTnkRb7aQI2vSo6vN+Se2hf/+mpsXHxEp/o+jEtOux6o7LszA0ScCOANw4l7uZ7lT/YNYbh8MBQYjblqzyna7OfB25yb2IeBsID11PcL8x6MgdU9GRt8Ha8wZSDD2Zr/eMf/9AfUu7+O/hRy9OGVaB0+Sp1hze5dtHO35tAGYvPnmlbLV0LyqikvcaqiJqHPAZyvs296E7VREDXK1eu1ENomJUsWAXhx4TP0ODbe1BcvSlZ6KR5htpll/UxgAUYM6sQckAp7ggKqsTu/8fsDH766aerqv3W559/vpHnzWJjVPRTYjD3qtlaZ54MYO4ShsU9PZDN9dzTx48flxdffFGeeOIJ/Xq5z8qFlRLDimarsGoD1jWzr+VAMyLVPoNZY6agkoHCIKg6sDJjqNFdMDSPT1wpada+8GAWi2Jls7+qCytboAVcERLF/ZriXsBvLu4v3GfBoGSBhWNFq6aqXNpNPhtzT1km4ZpmrwQ/xqedc7Ha1H5AOvW4WkYGEyQwAAF8nFY5m+LhhEjO+HSGneCN/uabb5aHH37YMvvKrq7KMz8wbrvtNuMNWJU7XSPwpBK8rXqaLabqYEjIrJwhOKWyTqg6eFu+9dZb1aYeRPLtt982toczgfPDg+Xxxx/X3wbdHyzmvuDNdcaHvyNx2rcBPcmkM643iuw+vmwUmhIIE6E+uaOy8QFcs4Pt8bceUUX6utnkJ4I3b/ObuaqIz3ggGvxwC4YrYB2BIotZUHbWpoH6hDhZSpQyDgVACeIHQZS1Cmkcz11wTZXgHjJ/rUHl33HHHZbZWSMRo87Xe9X8oXpYtj75SeuDHuf69a9/XZ3ioNaw6mHYD3HwXn31VUvYDE8NQgFTAkuw+XdA5XtbZ2m+jXB09zSkjkknaR98AB1tDRSORB0LSlbB1V9Wm8Z62nXfcPlVaS+mJ9f3uQGoCi3lR1RSP2Z/pS5Emw35BeM7oUblYUjg5fCNN97Q7zH87w92xCJQXdWHDjOyJstFV37Ecox317wsTQ3WWT4H926X+YtP1etFRkbJhVdcL8eLDmn+G92SPWWqxMYlGG0c3t/f4mUUMkECbgRggn/uuef0mT4ogpKFWFp464e1Cz++sKrAFwVrZSmwG5N3a1rffPrppwUPEQiGKPHjDJ8YpUjA0nDvvffq5QP9gXIHBQvHx3ANAkXiwalubCiLX/6y9UfskUceMR5qeBjiMyewRuABiTdttGd+SOJtbKQFwzEqHg2csDGcZLYKon9R2ncMU2adri8YZqg/slVatenmSGNGIKaA44PSShD7x4lgX3ysGcES4QicPH2ZJE9bZuwKhc1iKdNKGo7u1Icy1Jv63Nvv1aJXPy+Nx/fqUduxv/qEj9FQABP4f8D/l7uiPZhDwk/O7IeENszKF4YA3a2rdtYTBC+FQq+G6BEkGP6DUCDQPvzyzC8OsC6Zv1gwmL4PZh9f71UwhsO+GnpHVHcMKyFsCSwfmCjgz6n9GALEgt8exGSC/527ZRKMza4FdtfDCRsMl8MChReN5tJD2v/zHj2kAz4vhRecDO2bneYJJGUbnnXSrKTOO1eiNYf66j1rtN+yUP0FxHyvVu1+q1/MKtRV3/7Ei9Di/3lM/9QVPoWF2cUT551vBDt11IkhVMLvLH6jEF0fFt/hHN4eTLd1RQs7qg9Bq0YiNE3ZXY4c2iuRWuT3mXNP0YugbBXMdE0nVvWPHNwrB/a4zJkqn2sSGIgA3hZh3YFPEATKDIYRsQxV8G1BTIFXDxIoSTDtK1EPH7XtaY03J7SlhnDQR0+WN9UGHnCYKaaixOPYeNs1v/GquniojsTDTR3fbg1/MW8+Y/hERvqivkCHdm0g6vTRl/9oV2TJw2xBPDgi4pLFbA1TlRBuAZ/EcRc8eI6+8ifJu/QzehEULjycsJgFTryYrTiQFc5cf7BpKAv+FCjz5v8zsx8SrJ/4DI16+cBLixpOdO/DL3/5S/ne975nKPbwW7rqKpeTs6oPxeFXv/qV2hzW9WDu1Z/97Gfy4x//2DgvvMBgMQsexsqXy5w/2DRe0hCqwS5cg3kIEy+J5uHNwR4PfljKF8uuDShC7i8gdvUQFT48JlG/B+zuA0SHL375D/12RdvwC1MzDxFeAh9Udxf4byVrn7aCtS1Qgv9xs4U2UMfxV7sehw7do8GrA+7fvVX27Nik3cgdKstYY7gQ5bu2eY48a1RmYkwQUMN93k7G/Mbnbhkx74sPSX/729/2OpsHCg+GNZw6Z+MY99xzj241g8Otex+8zaoz9xEfhYYlC8d2ev54EMBC56k+8mFl++53v2s+VFCnm07sl8Zju/VP0XjqKPw68JaNb6vBgdebVGx5UUrffwbfgulXFZYyTF/Hm72dwIJ15IV77fujtYdI9jsfvNPypm7xO/mgUYSsUILvyHkUzedKSW9vt0oGZG3+Lh7+f83Da1CqzDMWMSPOk8BpG5bdgWJeQamG4gZLkTcx30ee/re9tWFX7uu9Cqs3PsZuF4oCfUQkfAyJK/Hlflf7OF1jFpzZ8X4oMw1hWdJjxdncD6o/KpSJ+RuDqsxujReVxhN77Yp0q/SOP3xS8NUDOzn4z+/r31W0uz9xL1XteF2P52Uut73HtLpKerXfPifSa7rfnNQPpjoh2ht+/180hz2EFWwiwjlopsfqytJ+oR4cNhOU1fCxV5iHB2vy9fdJ4e0MM1bcHZX9fZxgag/DaQg4hwVDAJh9Bd8UzPLBsMZoFVjS8DkVWNdwPnig4X9tNEtMWq4+TIjPdiBOD2JmtVYe04Y5jtgrPqaTnfuJe0V9PPfk+ifl+JuP6MMZmEmI4b5WLcJ8gzYsiQ/fOhG8Sau3f3xip6FYm9Zdst+Rouek/bFSB/cXpsVjBiKsYbCmYqjeabDgYOWghgvzNBcDfBcV3270pxLo7bzPPfdcw5oGKxoc6YcqsNDiHomaoH1SCh8w164X/LHwDcGW8mKt+YEf48u/+bzxcWd84L3p5AHdDzKpYIkeigUvTRh+dxqgF7N3MWklNnOaHqhUdxvQ+kKxJzAkRcu+ybGRS0VrbFxHnkXwE7BTtIK/1+whCfQnAMf7j370o7riilL40tnNAO2/Z2Bz7BStwB6RrZsJGD5a5kymSYAESIAESIAEfCOAiSPKIoh1MChZvp0BaweCABWtQFBlmyRAAiRAAuOOQHFxX3T5cXfiPOEBCXh0hh9wLxaSAAmQAAmQAAmQAAl4JUBFyysiViABEiABEiABEiCBwRHg0OHguHEvEiABPxEoev5eLcBpX0wzT6Eb/HQoNkMC45LA/se+pX3jM1Y/95aKonHJYCRPmorWSNLnsUmABPQ4QXqsILIgARIICAGEbqCMHAEOHY4cex6ZBEiABEiABEhgjBOgojXGLzBPjwRIgARIgARIYOQIUNEaOfY8MgmQAAmQAAmQwBgnQEVrjF9gnh4JkAAJkAAJkMDIEaAz/Mix9+nIRUWcKeITMFYmARIgARIggSAgQItWEFwEdoEESIAESIAESGBsEqCiNTavK8+KBEiABEiABEggCAhQ0QqCi8AukAAJkAAJkAAJjE0CVLTG5nXlWZEACZAACZAACQQBASpaQXAR2AUSIAESIAESIIGxSYCK1ti8rjwrEiABEiABEiCBICBARSsILgK7QAIkQAIkQAIkMDYJUNEam9eVZ0UCJEACJEACJBAEBBiwNAguwmjvQkxaroSEhkpvd5e0Vh0f7afD/pMACZAACZCA3wiExyckSWdHu7S3tw2q0ZjYeAkLC9P3HUo7gzo4dxoWApMmTZKQkBD9WGVlZdLd3W0cNyIuWRZ8+o/G9oYfXmqk/ZGIiJ8gEfHJelM92v9pW02JP5plGyRAAiRAAiQwLATCV152nZSXnpD3177q0wHTM7NlzoKlkpSSauw3mHaMnZkISgJTpkyRlStXGn178sknpaWlxdgOVCIua5rkXnSnJEyZZxyit6dbNv74CmObCRIgARIgARIIdgI+Dx1OysnTFay4+MRgPzf2zw8Eli5darRy8uTJgCtZibnzNQXr0xKbOdU4LhMkQAIkQAIkMFoJOFa0IiOj5LxLVkl0TOxoPVf220cC6enpkpSUZOy1YcMGIx2IxLw77pO4rOmBaJptkgAJkAAJkMCIEHA86zA8IrKfknXiaKHU19WMSMd50MATWL58uXGQ6upqqaurM7YDkYBTvVngj9VQvMOcxTQJkAAJkAAJjCoCji1a5rMqLjwgB/Zsk7bWFll2+vmSlDzBXMx0EBII1WYF9vT0OO5ZcnKypKWlGfU3btxopH1JRKdmS2djjXR3tDreraW8SI6+8kdpOLpTJp3+YUnMW+hoXzjs9/b2OqrLSiRAAiRAAiQwHAQcK1qdnR1yaN9OKTywe9AzFIfjhHgMKwEoSwsWLJCcnBx5+eWXBbMGnciyZcuMag0NDY73w04T558vmSuukdiMqVrYh74ZqVC0StY+LqXv/cto1z1RtfMNqdz2ijSdPOBe5Gh7/vz5csopp0hhYaHs3LlTGhsbHe3HSiRAAiRAAiQQKALOFS1tav3enZsD1Q+260cCERERMnv2bH2JjfXdpw77TJ482ejR5s3Or/vEBSul4OovG/uqRFhkjEy54BMCC1fRC79T2ZZ10Yv3WbZ93YBFC6FGZsyYoS8Y6ty9e7euePlizfP1uKxPAiRAAiRAAp4IOFa0PDXA/OAhkJGRIQsXLhRz3KvB9M4807CtrU2OHj3quBmlZMGC1Vp1TMKj4yV6Qraxf/qiS+TEW3+XzuZaI89fCfdhQwx/nnnmmXL66adLUVGRbN++XWCdo5AACZAACZDAcBGgojVcpAN0nMjISJkzZ45uvYqOju53FFhySkpKZNeuXVJeXt6v3D0D7U2d6gqtsHXrVvcqXrcrtq6WohfvN+olT1sqMz/6Q2N70pnXaz5YfzK2/ZXAcCEUqblz5wpmTCqBf1pBQYG+oBxWrkOHDvnks6ba4poESIAESIAEfCFARcsXWkFUF1Yr+F5lZmYaUdvN3cOw2d69e31WKBYtWmS019nZKQcPHjQ36zXdVn3ComRhh7rDm6Xx2G4j+Ch8twIlxcXFggUKI4ZPZ82aJebh08TERN3Cdeqpp+qWuh07dkhtrf+ta4E6P7ZLAiRAAiQwughQ0RpF1ysqKkrmzZunKw9QJNylo0ObsKBZavbs2SPNzc3uxV634d8ExUQJrGDuw3GqzNO65J3HbYugbKko75EJrq8J2Fb2QyZYQInCkpKSoiuleXl5AusWBOv8/Hx9aWpq0pkdOHDA8nkhP3SDTZAACZAACYxzAlS0RtE/wAUXXGAZEkPXoQipoUGnMwo9nTKUOKWIYMgRQ2y+SlOJvQWsvb7CaCpM89saToHFas2aNbJ27VqBsoWhRXPoivj4eFmxYoUkJCRIoIOyDud581gkQAIkQAIjT4CK1shfg0H3AI7qq1evlvr6+kG3Yd4R4RGU7N+/f1DWnfY6+/ARPaY4WqFhI/NvB6UUTvFYsrOz5cILLzSGSdV5c00CJEACJEAC/iQwMk88f57BOGqrq6vLcrZwfr/22mt1B/B9+/bJUIa+Zs6cKQgLAYFCsm3bNsuxnG7gw8/BKuCFiQM4V7uJAxhupJAACZAACZCAPwlQ0fInzQC39corr+hDX3CCT011+TnBwRtDX/hkTmlpqT7kh+FEX2Tx4sVGdVh8xorSgaFQzKKEgmVmpk4WSiU+lg1fLiezMtV+XJMACZAACZCAEwJUtJxQCqI6alYdZtJhqG/69OmGJQoBOzEbEQtmDB45ckRXurzFjsrNzbVYeHwJUBpEaCxdgQ8W+CAivvI7M1doaWkRWAGxgBWFBEiABEiABAJBgIpWIKgOQ5tQFOC4jQXKBKxc5thRGAbEEBkWfIoGCoUnvytzgFJYwgYzY3EYTtnrITAcCId+RIbHDE13gfXqxIkTuvWqsrLSvZjbJEACJEACJOB3AlS0/I50+Bs8fvy4YFGKBpQrc/gHzKbDsGJ1dXW/bxYiDheGHpUM9uPRav+RXOO8zQ79qi8I34CYYp4UTVWPaxIgARIgARLwNwEqWv4mOoLtYRYihv2wYFadCmg6UJeggCmpqqoSBDodC4LwFMeOHdOtVzU1NWPhlHgOJEACJEACo5CArmhlZE2Wi678iKX77655WZoarGEDEpNS5NSzL7LUi46JMbadtmPswETACGAIEAssW4gbhUCk7rMW8S1As4N4MFizFt/zhISG981+BJzQCNdnhUJCw2TpV/9lYVbyzhNS+t4zeh4c+OGPhoCtiGjPD0lbUHGDBEiABEhgBAgYFq2Y2DjL4SPC+0ceD4+IFPd6lp20Dfdyu3bc9+F24AhA+UCoBrtwDZipqAQKSjDMuouIS1Zdsl2HRVn/TyMT04x6yrndyGCCBEiABEiABEaYQN/3SGw60dPb0y+3VxuO8VXs2vG1Ddb3P4G4uDh9dqJqebAzDZ3GzertccUAc7qP6ttAa3+2NdBxWEYCJEACJEACgyEQok3t7x3MjmN9n1WrVulDb8EwnBYI1ueee67+nT+0Dd+uJ554IhCHYZskQAIkQAIkMK4JeLRojWsqY/zkEfoA3/xTsnXrVpXkmgRIgARIgARIwI8EDB8tP7bJpoKcQFZWlrS3t+u9xBqf7qGQAAmQAAmQAAn4nwAVLf8zDfoWVXT5oO8oO0gCJEACJEACo5wAhw5H+QVk90mABEiABEiABIKXABWt4L027BkJkAAJkAAJkMAoJ0BFa5RfQHafBEiABEiABEggeAlQ0Qrea8OekQAJkAAJkAAJjHICVLRG+QVk90mABEiABEiABIKXABWt4L027BkJkAAJkAAJkMAoJ0BFa5RfQHafBEiABEiABEggeAlQ0Qrea8OekQAJkAAJkAAJjHIC/NbhKL+A7D4JkAAJkAAJkEDwEqBFK3ivDXtGAiRAAiRAAiQwyglQ0RrlF5DdJwESIAESIAESCF4CVLSC99qwZyRAAiRAAiRAAqOcABWtUX4B2X0SIAESIAESIIHgJUBFK3ivDXtGAiRAAiRAAiQwyglQ0RrlF5DdJwESIAESIAESCF4CVLSC99qwZyRAAiRAAiRAAqOcABWtUX4B2X0SIAESIAESIIHgJRAevF1jz4ZCICwyRqJSMvUmuloapKOx2nFzEbFJIiEh0tvTLV2tjY73Y0USIAESIAESIAErgfD4hCTp7GiX9vY2a4mHrbDwcElLz5K4+ER9CY+IkKbGBmlsqJPa6gppa23xsCeznRCI0Himp6frVbu7u6WsrMzJbv3qpC++VKZc+Ek9v7XymOz845396thlRCakyqIv/qOvqLdXNvzoMrtqzCMBEiABEiABEnBAIHzlZddJeekJeX/tqwNWn5iWKVNnzJXM7BzN2OF5xLHwwB7Zv3urdHV1DtgeC+0JrFixQqZPn64XtrW1yRNPPGFf0VuuZpEalISGDWo37kQCJEACJEACJNCfgGeNya3uwqVnSNbk3AGVLOxSMHOuQHkLD49wa4Gb3gjAmlVQUGBU27Fjh5FmggRIgARIgARIYPQRGJSPVmtLk1SWn5S62mptqLBVMPw4ffZ8iYiI1AlEx8TK4hVny8b1b4w+IiPY44ULF0poaJ/u29XVJfv27Rv23nS3NUtLeZHuo9XdwWHgYb8APCAJkAAJkMCYIuCTolVXWyX7dm6RirKSfhCOHNwjZ194pSQmpehlsH7FxSdIcxOdqfvBssmAgjVnzhyjZPfu3dKr+UgNt3S3N8uuP39muA/L45EACZAACZDAmCTgeOhw7evPy5pX/2urZIFMd3eXbHnvbQuklAlplu3xtKEsU07PGUpWWFiff1RPT4/s3LnT6a4SEhYuMRNztPqD9MtyfKTAVPSVVWB6wVZJgARIgARIwP8EHFu0Ojs7vB69ob5Ws8L0GH5cSRMmyoljR7zuN5Yq5OXlyYIFCyQlJUUeffRRx6eGYUMlhw4d0hTXbrXpcY1ZhRPnnScR8X1WRA2+tFYdl+NvPeJxH/eChCnzJP/yu92z9W0MHe756xdty5A5ccFKyTn/Nr28vbZU9j76FY91UZCYO18KVn1Nr9PT2SY7fn+Hnr700kslMTFR9u7dqy+dnf6bSHH55ZfLhz70If046s8777wjDz/8sNrkmgRIgARIgAQCRsCxouWkB6HajDXzjMTW5iYnu436OvHx8bpyBUf2cC38BcSXYT/MMoyM7PNvw35btmwZkEloeKTMvuVnEj95trWeNtMwJm2KzLj+u1J/ZKu1zMNWdErWB9Ywmwpehi5bygoF4SAgWMOqBkXPk2Seep1R371edHS0LF68WBYtWiSlpaWCiQCDDW1hPv6kSZN0Jc6cl5uba95kmgRIgARIgAQCRsCvilZK6kRLR6sqBxcDytJIkG6EaErN1KlTZf78+br1aijdhIKh5OjRo1pMs3a1abuefv13LEpWT2e7NJcekrDoeIlN05QIrW9JU11t2jbyQWZ7fYV0NFQaVULCIiQiLtnYHijRUlEsnc11Rv2M5VdL8eoHbHeBAp5csMQoq9iy2kibE+AK5QgLOOzfv1/27NnjlYm5DaZJgARIgARIIFgI+FXRmjp9rnFeGEJsqKsxtsdKAkNcGBqEkqV8qsznhmGvwsJCgTO7E5k8ebLExsYaVTdt2mSk7RKRSemawrLUKGo6eUD2/u1LehR3ZMKqNO+O+yU0IsqoM1CioXiHbPvdx4wqaH/R3c6HPKt2vi5Zp31I3z917jkeFa2UWafrvmR6Rc1SVrn9FeOYr7zyisycOVNmz54tCQkJRn5UVJRgSBULrFvwWysp6T8Rw9iBCRIgARIgARIIMgJ+U7TSMjQrRE6ecXr7dm0z0qM9AWftadOmybx58yQpSfs8jZtguA/DXVCufFUEli9fbrSGNpqamoxtu8SUCz5hZPdqExDMShYKMCR38KkfyKybfmzUC2SibONzhqIVrlnU4rKm69Y192NmLL3CyGos2SfdHa3GNkJZwGqFBYosrIRQZNUwLCpmZmbqS0dHhxw8eFB27dolCOhKIQESIAESIIFgJuAXRSsqOkZOPetC4zybGuul8MAuY3u0JpKTk3VrSp7m4G43M66xsVGPdXXgwAEtEn6Xz6eZlpZmUdw2btzotY3EKfONOjUH3jUsWUamloB/FhQZfO8w0NLRUCVtNSclesIk/VCZ2vBh4XO/shwWsyITcxcYeeWbXjDS7omGhgZZv369vuTkaNY5TbnNyMjQRkND9KrwZUMelsrKSt3KdezYMfdmjG1cI/eJBTgGhQRIgARIgASGg8CQFS18+/DM8y+TUBWaQJst9+7bLwtCFIx2ufrqq/spWFCojhw5oltUhvrANluzampqBIs3CY9xDa3VHXzfY/XGY7sledoyj+X+LKjY+pIoSxuGCOU5a+uYGQm/MQg+VF2zd621goet48e1GZTagoj5s2bN0hdMPFACRXXlypXy0ksveXSc/+c//ylYKCRAAiRAAiQwEgQcx9Gy6xwcnE8/52I9MrwqX//WS9La0qw2x9T65MmT+kMbFpehKlkYIlMfjwYkJ9YsWIawKGmvq1DJfuuOhup+eYHKgKKlBFY0hHEwS/rSy41NWNugbPki8HvDUOHTTz8tmzdv9mVX1iUBEiABEiCBESXgemoPohvLzjhPJkzMMPbc8M7rUlPt+eFvVBwlCQw5mYcMMRPupptukvLyct2faKAhK2+niI9HK4FfFvyzvElUojUAbFebZ3+uzibv1jFvx3NajmjymPUI/yxIxrKrpOFo39AxFK/4rBlGU2UbnjXSThMYwoXfVn5+vu0EBPehQaftsh4JkAAJkAAJBJrAoBWtRcvPlKxsVzyi7ZvWSdlJz74ygT6RQLSPISfMhEPUdjUzEL5CyjEbw4jFxcW6taWurs5xF9AWZhsqcWqlQSgFsyCelicJi47zVBSQ/PJNz8vUq+7R206eDgd/DBX2StpCzXfvg2FDhKFwGt8LvlhgjyFDxd7ccShXmN2JmYjww6KQAAmQAAmQQDASGJSiNXfhMpmS77JS7NmxSY4eORiM5zekPkGRwpAVltTUVN0xHg7aysqFWXGYjYilublZ4BSPD0FjZtxAsmSJK54UYkUVFRUNVN0og4M7ht1CtMCwkCgtFAMsSXYSmTjRLjtgeVW735L8K76g9w0KYPL0ZVJ3aKOkLb7UOGbNvnVG2i4BJRbBROfOnWsZVjXXhR8brgf85CgkQAIkQAIkEOwEfFa0ZsxZKNNmuXxwDu3bIYf3j/4Zht4uVHV1tbz55pv60BViPkEZMDtmx8XF6ZHNEXy0oqJCH1qEtctd4NiNCPJKtm3zLQwGhunCYxL13eNzZkvN/vWqKcs6LnOaZTvQGwg1gZhcKlBqxtIrpenEfolNzzMOXbrh30banFCzO6Fk2cUmg8KLzxJBwYJC64ugzS996UuWXaCk3XvvvZY8bpAACZAACZBAIAj4pGjlT5sts+e7rDFFh/fJ3p1bAtGvoG0TQ1bqm3xQEE455RTdCqOsXOg4nNwxI+6RRx7pdx74xIwKVQAFApHPfZHWymOC7xNCMCx37LW/9Ns9OjVbopJdvnP9KgQoA/5XStFKmrpI89W6wjhSZ0u9tJTZW6HOOOMMWwsWwjdAuUK0/MFKVlaWZGdnW3aHUkwhARIgARIggeEg4FjRmpxbIAuWnGb06cRRzT9my3vG9nhMwC/r7bff1ocS8b1CxHbCbEJPAmUMfkdKEODUl28iYr9jr/9V5t7+W70JWLayz75RStY+rpoUDNvN+PB3je3hTNQd3iw9XR16HzC8OfmcW4zDV+18w0gPlMAMQxWQtLW1daCqLCMBEiABEiCBoCegK1oZWZPlois/Yunsu2telqaGeiNv8YqzjDQSaRnZcvFVN1jy3DfKS4/L9k32Q1vudUfzNmKGwT8LCxQtfDLG7Oyuzg2KmLJ8YR84cvsqTSX7pa36hESn9jnTQ5mBhavu4EYJj02QtFMuNj7c7K3thMlzZMIc63U1x+mCE3vuRXf2a6Z8ywtaH0r65cP5vXb/u5I679x+ZYgg70mgUGG4FR+SPnHihKdqzCcBEiABEiCBUUfAsGjFxFqHUyIGmNGGs4yKjvZ6snHxnq07XncepRUQX+udd96x7T2+kagEVpvBhiXAJ3bmfuJ3RuT3pPxFgsUsXa0Nhi+XOd+cnjDnTMlccY05q1/arrylosiDoiWC4UN3Rau9tkw6tI9XexL4vgVKMInBXWA1o5AACZAACZDAcBDwGLC0R/so9FBlLESHHyoDtf+MGTP0COfYxnDh1q1bVZHPa3zPcMf9t+mWrX47a22Xb35eG058wijyFCC0R3NgH4zA8d2T4CPX7vG9Krau9lQ94PnLlvWPjv/MM88E/Lg8AAmQAAmQAAmAQIg2K6uXKAJP4IYbbpCYmL5vDyKcA3y7/CGIlwUH9Ni0PC1IqBZTSvv0jifFyh/HG21t/OMf/zC4o+/19fVy++23j7bTYH9JgARIgARGKQFj6HCU9n9UdHvKlCmWh73TAKVOTq67rVn7duA7UiP2w5VO2hirdTArVCm36hwffvhhleSaBEiABEiABAJOgIpWwBGL4NM9bW1t+pFKSkoEn9yhBJ7AeedpH7M2CYKdrlu3zpTDJAmQAAmQAAkElgAVrcDy1Vt///33BQtleAksXbrUcsCHHnrIss0NEiABEiABEgg0AfpoBZow2x8xAgixge9SQvBZpMGE0xixzvPAJEACJEACY4IAFa0xcRl5EiRAAiRAAiRAAsFIwGN4h2DsLPtEAiRAAiRAAiRAAqOJwP8DfZhH2cl9ChEAAAAASUVORK5CYII=;" vertex="1" parent="WIyWlLk6GJQsqaUBKTNV-1">
          <mxGeometry x="380" y="180" width="260.71" height="110" as="geometry" />
        </mxCell>
        <mxCell id="7UcVWqpw03O2dLqBT2V2-27" value="sibling" style="edgeStyle=orthogonalEdgeStyle;rounded=0;orthogonalLoop=1;jettySize=auto;html=1;" edge="1" parent="WIyWlLk6GJQsqaUBKTNV-1" source="7UcVWqpw03O2dLqBT2V2-24" target="7UcVWqpw03O2dLqBT2V2-26">
          <mxGeometry relative="1" as="geometry" />
        </mxCell>
        <mxCell id="7UcVWqpw03O2dLqBT2V2-31" style="edgeStyle=orthogonalEdgeStyle;rounded=0;orthogonalLoop=1;jettySize=auto;html=1;exitX=0;exitY=0.5;exitDx=0;exitDy=0;entryX=0;entryY=0.5;entryDx=0;entryDy=0;" edge="1" parent="WIyWlLk6GJQsqaUBKTNV-1" source="7UcVWqpw03O2dLqBT2V2-24" target="7UcVWqpw03O2dLqBT2V2-18">
          <mxGeometry relative="1" as="geometry" />
        </mxCell>
        <mxCell id="7UcVWqpw03O2dLqBT2V2-32" value="return" style="edgeLabel;html=1;align=center;verticalAlign=middle;resizable=0;points=[];" vertex="1" connectable="0" parent="7UcVWqpw03O2dLqBT2V2-31">
          <mxGeometry x="0.1769" relative="1" as="geometry">
            <mxPoint as="offset" />
          </mxGeometry>
        </mxCell>
        <mxCell id="7UcVWqpw03O2dLqBT2V2-24" value="text(hello)" style="rounded=1;whiteSpace=wrap;html=1;fillColor=#d5e8d4;strokeColor=#82b366;" vertex="1" parent="WIyWlLk6GJQsqaUBKTNV-1">
          <mxGeometry x="470" y="530" width="120" height="50" as="geometry" />
        </mxCell>
        <mxCell id="7UcVWqpw03O2dLqBT2V2-33" style="edgeStyle=orthogonalEdgeStyle;rounded=0;orthogonalLoop=1;jettySize=auto;html=1;exitX=0.25;exitY=0;exitDx=0;exitDy=0;entryX=1;entryY=0.75;entryDx=0;entryDy=0;" edge="1" parent="WIyWlLk6GJQsqaUBKTNV-1" source="7UcVWqpw03O2dLqBT2V2-26" target="7UcVWqpw03O2dLqBT2V2-18">
          <mxGeometry relative="1" as="geometry" />
        </mxCell>
        <mxCell id="7UcVWqpw03O2dLqBT2V2-34" value="return" style="edgeLabel;html=1;align=center;verticalAlign=middle;resizable=0;points=[];" vertex="1" connectable="0" parent="7UcVWqpw03O2dLqBT2V2-33">
          <mxGeometry x="-0.1261" y="-3" relative="1" as="geometry">
            <mxPoint as="offset" />
          </mxGeometry>
        </mxCell>
        <mxCell id="7UcVWqpw03O2dLqBT2V2-26" value="span(world)" style="rounded=1;whiteSpace=wrap;html=1;fillColor=#d5e8d4;strokeColor=#82b366;" vertex="1" parent="WIyWlLk6GJQsqaUBKTNV-1">
          <mxGeometry x="670" y="530" width="120" height="50" as="geometry" />
        </mxCell>
        <mxCell id="7UcVWqpw03O2dLqBT2V2-37" value="workinProgress" style="text;html=1;align=center;verticalAlign=middle;resizable=0;points=[];autosize=1;strokeColor=none;fillColor=none;fontColor=#00FF00;" vertex="1" parent="WIyWlLk6GJQsqaUBKTNV-1">
          <mxGeometry x="470" y="298" width="110" height="30" as="geometry" />
        </mxCell>
        <mxCell id="7UcVWqpw03O2dLqBT2V2-38" value="1.单元素只有一个文本节点时，该文本节点不会创建fiber，而是作为一个props的children&lt;div&gt;&lt;br&gt;&lt;div&gt;2.所有fiber的关联都是在beginWork阶段，在commit阶段则开始创建和更新真实节点&lt;/div&gt;&lt;/div&gt;" style="text;html=1;align=left;verticalAlign=middle;resizable=0;points=[];autosize=1;strokeColor=none;fillColor=none;" vertex="1" parent="WIyWlLk6GJQsqaUBKTNV-1">
          <mxGeometry x="410" y="70" width="490" height="60" as="geometry" />
        </mxCell>
      </root>
    </mxGraphModel>
  </diagram>
</mxfile>
